<svg width="16" height="16" viewBox="0 0 16 16" fill="none" xmlns="http://www.w3.org/2000/svg">
<path d="M13 4.97667C12.6281 5.14231 12.2319 5.2521 11.8187 5.3054C12.2437 5.04775 12.5681 4.64287 12.7206 4.15485C12.3244 4.39473 11.8869 4.56417 11.4206 4.65873C11.0444 4.25194 10.5081 4 9.92312 4C8.78812 4 7.87437 4.93542 7.87437 6.08217C7.87437 6.24717 7.88812 6.40583 7.92188 6.55687C6.2175 6.47246 4.70938 5.64302 3.69625 4.3795C3.51937 4.6911 3.41563 5.04775 3.41563 5.43169C3.41563 6.15262 3.78125 6.79167 4.32625 7.16165C3.99687 7.15531 3.67375 7.05821 3.4 6.90527C3.4 6.91162 3.4 6.91987 3.4 6.92812C3.4 7.93969 4.11062 8.77992 5.0425 8.97348C4.87562 9.01981 4.69375 9.04202 4.505 9.04202C4.37375 9.04202 4.24125 9.0344 4.11687 9.00648C4.3825 9.83085 5.13625 10.4369 6.0325 10.4566C5.335 11.0106 4.44938 11.3444 3.49063 11.3444C3.3225 11.3444 3.16125 11.3368 3 11.3158C3.90812 11.9105 4.98438 12.25 6.145 12.25C9.9175 12.25 11.98 9.07692 11.98 6.3265C11.98 6.23448 11.9769 6.14563 11.9725 6.05742C12.3794 5.76423 12.7212 5.39806 13 4.97667Z" fill="white"/>
</svg>
