<svg width="16" height="16" viewBox="0 0 16 16" fill="none" xmlns="http://www.w3.org/2000/svg">
<path d="M12.9746 5.94004C12.9512 5.4087 12.8652 5.0434 12.7421 4.72687C12.6151 4.39089 12.4197 4.09008 12.1637 3.84001C11.9136 3.58605 11.6108 3.38872 11.2786 3.26372C10.9602 3.14064 10.5967 3.05471 10.0653 3.03129C9.52987 3.00588 9.3599 3 8.00195 3C6.644 3 6.47402 3.00588 5.9406 3.0293C5.40916 3.05273 5.04379 3.13873 4.72728 3.26174C4.39115 3.38872 4.09028 3.58407 3.84017 3.84001C3.58617 4.09008 3.38887 4.39287 3.26377 4.72497C3.14066 5.0434 3.05472 5.40671 3.03129 5.93805C3.00588 6.47336 3 6.6433 3 8.00099C3 9.35868 3.00588 9.52862 3.02931 10.0619C3.05274 10.5933 3.13876 10.9586 3.26187 11.2751C3.38887 11.6111 3.58617 11.9119 3.84017 12.162C4.09028 12.4159 4.39314 12.6133 4.7253 12.7383C5.04379 12.8613 5.40717 12.9473 5.93869 12.9707C6.47204 12.9942 6.64209 13 8.00004 13C9.35799 13 9.52796 12.9942 10.0614 12.9707C10.5928 12.9473 10.9582 12.8613 11.2747 12.7383C11.9469 12.4784 12.4783 11.9471 12.7382 11.2751C12.8612 10.9567 12.9473 10.5933 12.9707 10.0619C12.9941 9.52862 13 9.35868 13 8.00099C13 6.6433 12.998 6.47336 12.9746 5.94004ZM12.0739 10.0229C12.0524 10.5113 11.9703 10.775 11.9019 10.9508C11.7339 11.3864 11.388 11.7322 10.9523 11.9002C10.7765 11.9686 10.5108 12.0506 10.0242 12.0721C9.49667 12.0956 9.33845 12.1014 8.00393 12.1014C6.66941 12.1014 6.50921 12.0956 5.98357 12.0721C5.4951 12.0506 5.23132 11.9686 5.05547 11.9002C4.83864 11.8201 4.64126 11.6931 4.48106 11.5271C4.31498 11.3649 4.18798 11.1696 4.10784 10.9528C4.03945 10.777 3.9574 10.5113 3.93596 10.0249C3.91245 9.49741 3.90665 9.33915 3.90665 8.00488C3.90665 6.67062 3.91245 6.51045 3.93596 5.98498C3.9574 5.4966 4.03945 5.23288 4.10784 5.05706C4.18798 4.84019 4.31498 4.64293 4.48304 4.48269C4.64516 4.31664 4.84054 4.18966 5.05746 4.10961C5.23331 4.04124 5.49907 3.95921 5.98555 3.93769C6.5131 3.91426 6.6714 3.90838 8.00584 3.90838C9.34234 3.90838 9.50056 3.91426 10.0262 3.93769C10.5147 3.95921 10.7784 4.04124 10.9543 4.10961C11.1711 4.18966 11.3685 4.31664 11.5287 4.48269C11.6948 4.64484 11.8218 4.84019 11.9019 5.05706C11.9703 5.23288 12.0524 5.49851 12.0739 5.98498C12.0973 6.51243 12.1032 6.67062 12.1032 8.00488C12.1032 9.33915 12.0973 9.49543 12.0739 10.0229Z" fill="white"/>
<path d="M8 6C6.89585 6 6 6.89579 6 8C6 9.10421 6.89585 10 8 10C9.10421 10 10 9.10421 10 8C10 6.89579 9.10421 6 8 6ZM8 9.29735C7.28369 9.29735 6.70265 8.71637 6.70265 8C6.70265 7.28363 7.28369 6.70265 8 6.70265C8.71637 6.70265 9.29735 7.28363 9.29735 8C9.29735 8.71637 8.71637 9.29735 8 9.29735V9.29735Z" fill="white"/>
<path d="M11 5.5C11 5.77612 10.7761 6 10.5 6C10.2239 6 10 5.77612 10 5.5C10 5.22382 10.2239 5 10.5 5C10.7761 5 11 5.22382 11 5.5V5.5Z" fill="white"/>
</svg>
