<svg width="16" height="16" viewBox="0 0 16 16" fill="none" xmlns="http://www.w3.org/2000/svg">
<path d="M12 3H4C3.45 3 3 3.45 3 4V12C3 12.55 3.45 13 4 13H12C12.55 13 13 12.55 13 12V4C13 3.45 12.55 3 12 3ZM6 11.5H4.5V7H6V11.5ZM5.25 6.15C4.75 6.15 4.35 5.75 4.35 5.25C4.35 4.75 4.75 4.35 5.25 4.35C5.75 4.35 6.15 4.75 6.15 5.25C6.15 5.75 5.75 6.15 5.25 6.15ZM11.5 11.5H10V8.85C10 8.45002 9.65 8.1 9.25 8.1C8.85 8.1 8.5 8.45002 8.5 8.85V11.5H7V7H8.5V7.6C8.75 7.2 9.3 6.9 9.75 6.9C10.7 6.9 11.5 7.7 11.5 8.65V11.5Z" fill="white"/>
</svg>
